<svg width="24" height="24" viewBox="0 0 24 24" fill="none" xmlns="http://www.w3.org/2000/svg">
<g clip-path="url(#clip0_1018_35607)">
<path fill-rule="evenodd" clip-rule="evenodd" d="M15.7762 5.99316C17.8387 5.99316 19.5112 7.67316 19.5112 9.74541V10.9957L20.5987 13.1677C20.6518 13.2735 20.6793 13.3903 20.679 13.5087C20.6788 13.6271 20.6507 13.7438 20.5972 13.8494L19.5112 15.9974V17.2484C19.5112 19.3199 17.8387 20.9999 15.7762 20.9999H8.30548C6.24223 20.9999 4.57048 19.3199 4.57048 17.2484V15.9974L3.46048 13.8562C3.40463 13.7489 3.37527 13.6298 3.37488 13.5088C3.37449 13.3879 3.40307 13.2686 3.45823 13.1609L4.56973 10.9957V9.74541C4.56973 7.67316 6.24223 5.99316 8.30473 5.99316H15.7762ZM9.19873 10.1999C8.74641 10.1999 8.3126 10.3796 7.99276 10.6994C7.67292 11.0193 7.49323 11.4531 7.49323 11.9054V14.9369C7.50259 15.3829 7.68634 15.8076 8.0051 16.1197C8.32385 16.4318 8.75222 16.6067 9.19836 16.6067C9.64449 16.6067 10.0729 16.4318 10.3916 16.1197C10.7104 15.8076 10.8941 15.3829 10.9035 14.9369V11.9054C10.9035 11.4532 10.7239 11.0195 10.4042 10.6997C10.0845 10.3799 9.65093 10.2001 9.19873 10.1999ZM14.6932 10.1999C14.2409 10.1999 13.8071 10.3796 13.4873 10.6994C13.1674 11.0193 12.9877 11.4531 12.9877 11.9054V14.9369C12.9877 15.3892 13.1674 15.823 13.4873 16.1429C13.8071 16.4627 14.2409 16.6424 14.6932 16.6424C15.1456 16.6424 15.5794 16.4627 15.8992 16.1429C16.219 15.823 16.3987 15.3892 16.3987 14.9369V11.9054C16.3987 11.6814 16.3546 11.4595 16.2688 11.2526C16.1831 11.0456 16.0574 10.8576 15.8989 10.6992C15.7405 10.5408 15.5524 10.4152 15.3454 10.3295C15.1384 10.2439 14.9173 10.1998 14.6932 10.1999Z" fill="currentColor"/>
<path fill-rule="evenodd" clip-rule="evenodd" d="M12.0405 7.1685C12.5933 7.1685 13.1234 6.94891 13.5143 6.55804C13.9051 6.16716 14.1247 5.63703 14.1247 5.08425C14.1247 4.53147 13.9051 4.00134 13.5143 3.61046C13.1234 3.21959 12.5933 3 12.0405 3C11.4877 3 10.9576 3.21959 10.5667 3.61046C10.1758 4.00134 9.95624 4.53147 9.95624 5.08425C9.95624 5.63703 10.1758 6.16716 10.5667 6.55804C10.9576 6.94891 11.4877 7.1685 12.0405 7.1685Z" fill="currentColor"/>
</g>
</svg>
