<svg width="24" height="24" viewBox="0 0 24 24" fill="none" xmlns="http://www.w3.org/2000/svg">
<g clip-path="url(#clip0_114_4184)">
<path d="M23.714 12.2244C23.714 11.2412 23.6342 10.5236 23.4615 9.77954H12.2336V14.2175H18.8241C18.6913 15.3204 17.9738 16.9814 16.3793 18.0975L16.3569 18.246L19.907 20.9962L20.1529 21.0208C22.4118 18.9346 23.714 15.8652 23.714 12.2244Z" fill="#4285F4"/>
<path d="M12.2336 23.9176C15.4624 23.9176 18.173 22.8545 20.1529 21.0209L16.3792 18.0976C15.3694 18.8018 14.014 19.2934 12.2336 19.2934C9.07115 19.2934 6.38709 17.2074 5.43029 14.324L5.29005 14.3359L1.59863 17.1927L1.55035 17.3269C3.51689 21.2334 7.55631 23.9176 12.2336 23.9176Z" fill="#34A853"/>
<path d="M5.43029 14.324C5.17783 13.58 5.03173 12.7826 5.03173 11.9589C5.03173 11.135 5.17783 10.3378 5.41701 9.59366L5.41032 9.43519L1.67264 6.53247L1.55035 6.59064C0.739849 8.21174 0.27478 10.0322 0.27478 11.9589C0.27478 13.8855 0.739849 15.7059 1.55035 17.327L5.43029 14.324Z" fill="#FBBC05"/>
<path d="M12.2336 4.62403C14.4791 4.62403 15.9939 5.59402 16.8576 6.40461L20.2326 3.10928C18.1598 1.1826 15.4624 0 12.2336 0C7.55631 0 3.51689 2.68406 1.55035 6.59056L5.41701 9.59359C6.38709 6.7102 9.07115 4.62403 12.2336 4.62403Z" fill="#EB4335"/>
</g>
<defs>
<clipPath id="clip0_114_4184">
<rect width="24" height="24" fill="white"/>
</clipPath>
</defs>
</svg>
