<svg width="24" height="24" viewBox="0 0 24 24" fill="none" xmlns="http://www.w3.org/2000/svg">
<g clip-path="url(#clip0_1018_35613)">
<path fill-rule="evenodd" clip-rule="evenodd" d="M20.835 6.753H20.664C20.4485 6.75369 20.2352 6.79685 20.0364 6.88001C19.8375 6.96317 19.657 7.0847 19.5052 7.23766C19.3533 7.39062 19.2331 7.572 19.1514 7.77144C19.0697 7.97088 19.0281 8.18447 19.029 8.4V12.084C19.029 12.819 18.426 13.4152 17.709 13.4152C17.4921 13.4134 17.2788 13.3598 17.0868 13.259C16.8948 13.1581 16.7297 13.013 16.605 12.8355L12.876 7.4625C12.7244 7.24261 12.5216 7.06287 12.2852 6.93875C12.0487 6.81463 11.7856 6.74986 11.5185 6.75C10.668 6.75 9.903 7.479 9.903 8.37975V12.0848C9.903 12.8198 9.30525 13.416 8.583 13.416C8.1555 13.416 7.731 13.1992 7.479 12.8362L3.306 6.8235C3.2115 6.6885 3 6.75525 3 6.921V10.134C3 10.296 3.0495 10.4535 3.141 10.587L7.24725 16.5037C7.49025 16.8532 7.84725 17.1128 8.2605 17.2073C9.29325 17.4443 10.2443 16.6418 10.2443 15.6195V11.9175C10.2443 11.1825 10.8345 10.5863 11.5642 10.5863H11.5658C12.0052 10.5863 12.417 10.8022 12.6698 11.166L16.3988 16.5382C16.5481 16.7603 16.7504 16.9418 16.9874 17.0662C17.2244 17.1905 17.4886 17.254 17.7562 17.2507C18.6247 17.2507 19.3695 16.521 19.3695 15.621V11.9168C19.3695 11.1818 19.9598 10.5855 20.6895 10.5855H20.835C20.9265 10.5855 21 10.5105 21 10.419V6.91875C21.0001 6.89698 20.9959 6.87541 20.9877 6.85526C20.9794 6.83512 20.9673 6.81679 20.952 6.80133C20.9367 6.78587 20.9184 6.77357 20.8984 6.76515C20.8783 6.75673 20.8568 6.75235 20.835 6.75225V6.753Z" fill="currentColor"/>
</g>
<defs>
<clipPath id="clip0_1018_35613">
<rect width="18" height="18" fill="white" transform="translate(3 3)"/>
</clipPath>
</defs>
</svg>
