<svg width="16" height="16" viewBox="0 0 16 16" fill="none" xmlns="http://www.w3.org/2000/svg">
<path d="M11.3333 2.22664C12.3388 2.80721 13.1752 3.64032 13.7598 4.6435C14.3444 5.64669 14.6568 6.78515 14.6662 7.9462C14.6756 9.10724 14.3816 10.2506 13.8133 11.2631C13.245 12.2756 12.4221 13.1221 11.4261 13.7188C10.4301 14.3156 9.2955 14.6419 8.13465 14.6653C6.97381 14.6888 5.82695 14.4087 4.80762 13.8528C3.78829 13.2968 2.93183 12.4843 2.32303 11.4956C1.71423 10.507 1.37419 9.37644 1.33659 8.21597L1.33325 7.99997L1.33659 7.78397C1.37392 6.63263 1.70895 5.51061 2.30901 4.5273C2.90907 3.54399 3.75369 2.73294 4.76051 2.17322C5.76734 1.61351 6.90202 1.32423 8.05392 1.33359C9.20583 1.34295 10.3357 1.65063 11.3333 2.22664ZM10.4713 6.1953C10.3565 6.08052 10.2037 6.01156 10.0417 6.00138C9.87969 5.99119 9.71952 6.04047 9.59125 6.13997L9.52859 6.1953L7.33325 8.38997L6.47125 7.52864L6.40859 7.4733C6.28031 7.37387 6.12017 7.32465 5.95819 7.33487C5.79621 7.34509 5.64352 7.41405 5.52876 7.52881C5.414 7.64357 5.34504 7.79626 5.33482 7.95824C5.3246 8.12022 5.37382 8.28036 5.47325 8.40864L5.52859 8.4713L6.86192 9.80464L6.92459 9.85997C7.0415 9.95068 7.18527 9.99991 7.33325 9.99991C7.48123 9.99991 7.625 9.95068 7.74192 9.85997L7.80459 9.80464L10.4713 7.13797L10.5266 7.0753C10.6261 6.94703 10.6754 6.78687 10.6652 6.62485C10.655 6.46283 10.586 6.3101 10.4713 6.1953Z" fill="#4ADE80"/>
</svg>
