<svg width="16" height="16" viewBox="0 0 16 16" fill="none" xmlns="http://www.w3.org/2000/svg">
<path d="M13.0664 0C14.6344 0 15.9144 1.2296 15.996 2.7776L16 2.9336V13.0664C16 14.6344 14.7704 15.9144 13.2224 15.996L13.0664 16H2.9336C2.18254 16 1.46007 15.712 0.915043 15.1953C0.370013 14.6785 0.0439391 13.9724 0.00400009 13.2224L0 13.0664V2.9336C0 1.3656 1.2296 0.0856001 2.7776 0.00400009L2.9336 0H13.0664ZM10.9656 5.8344C10.8156 5.68442 10.6121 5.60017 10.4 5.60017C10.1879 5.60017 9.98442 5.68442 9.8344 5.8344L7.2 8.468L6.1656 7.4344L6.0904 7.368C5.92961 7.24367 5.72752 7.18521 5.52518 7.20448C5.32284 7.22376 5.13543 7.31932 5.001 7.47178C4.86657 7.62423 4.79521 7.82213 4.80142 8.02529C4.80762 8.22845 4.89092 8.42163 5.0344 8.5656L6.6344 10.1656L6.7096 10.232C6.86352 10.3514 7.05572 10.4105 7.25014 10.3983C7.44457 10.3861 7.62785 10.3033 7.7656 10.1656L10.9656 6.9656L11.032 6.8904C11.1514 6.73648 11.2105 6.54428 11.1983 6.34985C11.1861 6.15543 11.1033 5.97215 10.9656 5.8344Z" fill="black"/>
</svg>
