<svg width="24" height="20" viewBox="0 0 24 20" fill="none" xmlns="http://www.w3.org/2000/svg">
<path d="M15.4265 6.66591V8.33164H10.2843C9.31948 8.34964 8.51161 8.67459 7.86072 9.30848C7.20883 9.94238 6.87388 10.7283 6.85588 11.6651V14.9976C6.87388 15.9354 7.20883 16.7203 7.86072 17.3542C8.51161 17.9871 9.32048 18.313 10.2843 18.33H18.8539C19.8178 18.313 20.6256 17.9871 21.2775 17.3542C21.9294 16.7203 22.2644 15.9344 22.2824 14.9976V11.6651C22.2824 11.0572 22.1304 10.5013 21.8264 9.99837C21.5178 9.48996 21.0846 9.06874 20.5677 8.77457V6.95187C21.5855 7.31681 22.4074 7.91571 23.0323 8.74858C23.6571 9.58144 23.9781 10.5543 23.9961 11.6651V14.9976C23.9601 16.4213 23.4602 17.6011 22.4963 18.539C21.5325 19.4758 20.3177 19.9618 18.8539 19.9967H10.2843C8.81956 19.9618 7.60576 19.4768 6.64192 18.539C5.67808 17.6011 5.17816 16.4213 5.14216 14.9976V11.6651C5.17816 10.2413 5.67808 9.06152 6.64192 8.12368C7.60576 7.18583 8.81956 6.69991 10.2843 6.66591H15.4265ZM8.5686 13.3308V11.6651H13.7108C14.6756 11.6471 15.4835 11.3222 16.1344 10.6883C16.7863 10.0544 17.1212 9.26849 17.1392 8.33164V4.99919C17.1212 4.06134 16.7863 3.27647 16.1344 2.64257C15.4835 2.00967 14.6746 1.68373 13.7108 1.66673H5.14216C4.17832 1.68373 3.37045 2.00967 2.71856 2.64257C2.06666 3.27647 1.73172 4.06234 1.71372 4.99919V8.33164C1.71372 8.93954 1.8657 9.49545 2.16965 9.99837C2.4726 10.5013 2.89253 10.9092 3.42844 11.2222V13.0449C2.39261 12.6799 1.56674 12.073 0.950845 11.2222C0.338537 10.3826 0.0058831 9.37173 0 8.33264L0 4.99919C0.0359941 3.57542 0.535913 2.39561 1.49976 1.45776C2.4636 0.520915 3.6784 0.0349943 5.14216 0H13.7118C15.1765 0.0349943 16.3903 0.519915 17.3542 1.45776C18.318 2.39561 18.8179 3.57542 18.8539 4.99919V8.33164C18.8179 9.75541 18.318 10.9352 17.3542 11.8731C16.3903 12.8109 15.1765 13.2968 13.7118 13.3308H8.5696H8.5686Z" fill="currentColor"/>
</svg>
