<svg width="16" height="16" viewBox="0 0 16 16" fill="none" xmlns="http://www.w3.org/2000/svg">
<path d="M8.00016 1.3335C11.6822 1.3335 14.6668 4.31816 14.6668 8.00016C14.6682 9.75048 13.9812 11.4311 12.7541 12.6793C11.527 13.9274 9.85826 14.6429 8.10818 14.6712C6.35809 14.6996 4.66706 14.0385 3.40016 12.8308C2.13327 11.6231 1.39216 9.9656 1.33683 8.21616L1.3335 8.00016L1.33616 7.8135C1.43483 4.21816 4.38016 1.3335 8.00016 1.3335ZM8.00683 10.0002L7.92216 10.0048C7.76013 10.0241 7.61079 10.1021 7.50244 10.2241C7.39408 10.3461 7.33424 10.5037 7.33424 10.6668C7.33424 10.83 7.39408 10.9875 7.50244 11.1095C7.61079 11.2315 7.76013 11.3096 7.92216 11.3288L8.00016 11.3335L8.08483 11.3288C8.24686 11.3096 8.3962 11.2315 8.50455 11.1095C8.61291 10.9875 8.67275 10.83 8.67275 10.6668C8.67275 10.5037 8.61291 10.3461 8.50455 10.2241C8.3962 10.1021 8.24686 10.0241 8.08483 10.0048L8.00683 10.0002ZM8.00016 4.66683C7.83687 4.66685 7.67927 4.7268 7.55725 4.83531C7.43522 4.94381 7.35727 5.09333 7.33816 5.2555L7.3335 5.3335V8.00016L7.33816 8.07816C7.35744 8.2402 7.43547 8.38953 7.55747 8.49789C7.67948 8.60624 7.83699 8.66609 8.00016 8.66609C8.16334 8.66609 8.32085 8.60624 8.44285 8.49789C8.56486 8.38953 8.64289 8.2402 8.66216 8.07816L8.66683 8.00016V5.3335L8.66216 5.2555C8.64306 5.09333 8.5651 4.94381 8.44308 4.83531C8.32105 4.7268 8.16345 4.66685 8.00016 4.66683Z" fill="#DC2626"/>
</svg>
