<svg width="20" height="20" viewBox="0 0 20 20" fill="none" xmlns="http://www.w3.org/2000/svg">
<g clip-path="url(#clip0_1767_22966)">
<path fill-rule="evenodd" clip-rule="evenodd" d="M7.725 12.741L14.3733 7.82685C14.6992 7.58518 15.165 7.67935 15.3208 8.05352C16.1375 10.0277 15.7725 12.3993 14.1458 14.0277C12.52 15.656 10.2567 16.0127 8.18833 15.1993L5.92917 16.2468C9.17 18.4643 13.105 17.916 15.5642 15.4527C17.515 13.4993 18.1192 10.8368 17.5542 8.43602L17.5592 8.44185C16.74 4.91518 17.7608 3.50518 19.8508 0.622682C19.9008 0.554349 19.9508 0.486016 20 0.416016L17.2492 3.17018V3.16185L7.7225 12.7427M6.3525 13.9352C4.02583 11.7102 4.4275 8.26768 6.41167 6.28185C7.87917 4.81268 10.2842 4.21268 12.3833 5.09435L14.6375 4.05268C14.169 3.70803 13.6564 3.42776 13.1133 3.21935C11.7482 2.6606 10.2482 2.51801 8.80224 2.80952C7.35623 3.10104 6.02872 3.81363 4.98667 4.85768C2.87583 6.97102 2.21167 10.221 3.35167 12.9943C4.20333 15.0668 2.8075 16.5327 1.40167 18.0127C0.9025 18.5377 0.4025 19.0618 0 19.6168L6.35 13.9377" fill="white"/>
</g>
<defs>
<clipPath id="clip0_1767_22966">
<rect width="20" height="20" fill="white"/>
</clipPath>
</defs>
</svg>
