<svg width="118" height="24" viewBox="0 0 118 24" fill="none" xmlns="http://www.w3.org/2000/svg">
<g clip-path="url(#clip0_705_5572)">
<path d="M0.222977 8.61997C-0.0743255 8.32243 -0.0743256 7.84001 0.222977 7.54247L7.75937 5.1379e-07L18.5256 0L5.60611 12.93C5.30881 13.2275 4.82679 13.2275 4.52948 12.93L0.222977 8.61997Z" fill="url(#paint0_linear_705_5572)"/>
<path d="M13.8154 6.06092L18.5256 10.775V21.5499L8.43226 11.4484L13.8154 6.06092Z" fill="url(#paint1_linear_705_5572)"/>
<path d="M98.4609 6.87207C99.1328 6.87211 99.7352 6.96532 100.27 7.14648H104.604V8.97559L102.64 9.14453C102.943 9.72615 103.097 10.37 103.097 11.0781C103.097 11.8553 102.914 12.5641 102.549 13.2041C102.183 13.8287 101.65 14.331 100.95 14.7119C100.265 15.0776 99.4352 15.2607 98.4609 15.2607C97.9399 15.2607 97.4573 15.2046 97.0127 15.0967L96.1846 15.9121C96.2046 15.924 96.2253 15.9344 96.2451 15.9463C96.4126 16.0225 96.6187 16.0986 96.8623 16.1748C97.1059 16.2357 97.4256 16.2975 97.8213 16.3584C98.2171 16.4193 98.7193 16.4729 99.3281 16.5186C100.333 16.61 101.155 16.8003 101.795 17.0898C102.449 17.3793 102.929 17.7675 103.233 18.2549C103.538 18.7273 103.69 19.3147 103.69 20.0156C103.69 20.7012 103.501 21.3414 103.12 21.9355C102.755 22.5451 102.183 23.0327 101.406 23.3984C100.63 23.7792 99.6481 23.9697 98.4609 23.9697C97.3647 23.9697 96.4052 23.8319 95.583 23.5576C94.7608 23.2986 94.1208 22.8953 93.6641 22.3467C93.2227 21.8134 93.002 21.1506 93.002 20.3584C93.002 19.8251 93.1391 19.322 93.4131 18.8496C93.6585 18.4266 94.0016 18.0401 94.4424 17.6904C94.2322 17.5932 94.0411 17.4927 93.8701 17.3867C93.5656 17.1886 93.3141 16.9901 93.1162 16.792V16.2666L95.1221 14.1074C94.8282 13.8414 94.5774 13.5411 94.3721 13.2041C94.0067 12.5641 93.8242 11.8553 93.8242 11.0781C93.8242 10.3012 94.0068 9.60025 94.3721 8.97559C94.7527 8.33563 95.2856 7.8243 95.9707 7.44336C96.6711 7.06241 97.5017 6.87207 98.4609 6.87207ZM96.9482 18.4004C96.6455 18.5559 96.4036 18.7283 96.2227 18.918C95.9181 19.2684 95.7656 19.6419 95.7656 20.0381C95.7656 20.3886 95.88 20.6859 96.1084 20.9297C96.352 21.1734 96.6716 21.3484 97.0674 21.4551C97.4784 21.577 97.9351 21.6377 98.4375 21.6377C98.9246 21.6377 99.3432 21.5769 99.6934 21.4551C100.059 21.3332 100.341 21.1501 100.539 20.9062C100.752 20.6778 100.858 20.4038 100.858 20.084C100.858 19.6726 100.714 19.3372 100.425 19.0781C100.136 18.8191 99.5564 18.6586 98.6885 18.5977C98.0521 18.5477 97.4721 18.4811 96.9482 18.4004ZM50.6514 6.87207C52.0369 6.87207 53.1335 7.18481 53.9404 7.80957C54.7473 8.43432 55.2267 9.2955 55.3789 10.3926H52.4785C52.3872 10.0422 52.1819 9.76742 51.8623 9.56934C51.5578 9.35604 51.1464 9.25004 50.6289 9.25C50.0808 9.25 49.6614 9.34878 49.3721 9.54688C49.083 9.74494 48.9385 10.0044 48.9385 10.3242C48.9386 10.5374 49.0303 10.728 49.2129 10.8955C49.4108 11.063 49.6851 11.2073 50.0352 11.3291C50.3852 11.4357 50.8113 11.5428 51.3135 11.6494C52.1966 11.8323 52.9736 12.0453 53.6436 12.2891C54.3133 12.5176 54.8381 12.8532 55.2188 13.2949C55.5994 13.7216 55.79 14.3471 55.79 15.1699C55.79 15.9011 55.592 16.5559 55.1963 17.1348C54.8004 17.6986 54.2367 18.1409 53.5059 18.4609C52.7903 18.7808 51.9378 18.9414 50.9482 18.9414C49.8979 18.9414 48.9844 18.7736 48.208 18.4385C47.4316 18.1033 46.8224 17.6381 46.3809 17.0439C45.9393 16.4497 45.6879 15.7789 45.627 15.0322H48.6875C48.7636 15.3216 48.8926 15.5883 49.0752 15.832C49.2579 16.0606 49.5021 16.2437 49.8066 16.3809C50.111 16.5179 50.4762 16.5869 50.9023 16.5869C51.3133 16.5869 51.6484 16.5333 51.9072 16.4268C52.1661 16.3049 52.3567 16.1444 52.4785 15.9463C52.6154 15.7483 52.6846 15.5423 52.6846 15.3291C52.6845 15.0093 52.5928 14.7652 52.4102 14.5977C52.2275 14.4149 51.9604 14.2707 51.6104 14.1641C51.2603 14.0574 50.8342 13.9504 50.332 13.8438C49.7839 13.7371 49.2429 13.6075 48.71 13.4551C48.1925 13.2875 47.7284 13.0816 47.3174 12.8379C46.9064 12.5941 46.5786 12.2822 46.335 11.9014C46.0913 11.5204 45.9697 11.0472 45.9697 10.4834C45.9698 9.79787 46.1523 9.18849 46.5176 8.65527C46.883 8.10675 47.4159 7.67253 48.1162 7.35254C48.8166 7.03255 49.6617 6.87208 50.6514 6.87207ZM75.9463 6.87207C77.0576 6.87214 78.0473 7.13139 78.915 7.64941C79.7981 8.15227 80.4907 8.86113 80.9932 9.77539C81.5107 10.6743 81.7695 11.7179 81.7695 12.9062C81.7695 14.0947 81.5107 15.1463 80.9932 16.0605C80.4907 16.9595 79.798 17.6684 78.915 18.1865C78.0319 18.6894 77.0343 18.9414 75.9229 18.9414C74.8267 18.9414 73.8371 18.6893 72.9541 18.1865C72.0862 17.6684 71.3937 16.9596 70.876 16.0605C70.3736 15.1463 70.1221 14.1029 70.1221 12.9297C70.1221 11.7259 70.3735 10.6744 70.876 9.77539C71.3936 8.86117 72.0935 8.15226 72.9766 7.64941C73.8597 7.13132 74.85 6.87207 75.9463 6.87207ZM112.19 6.87207C113.332 6.87207 114.33 7.1241 115.183 7.62695C116.035 8.12979 116.697 8.80791 117.169 9.66113C117.641 10.5144 117.877 11.4817 117.877 12.5635V13.0898C117.877 13.2726 117.862 13.4632 117.832 13.6611H109.348C109.381 14.1548 109.49 14.5964 109.679 14.9863C109.922 15.4435 110.257 15.8015 110.684 16.0605C111.11 16.3043 111.605 16.4268 112.168 16.4268C112.731 16.4267 113.195 16.3043 113.561 16.0605C113.941 15.8167 114.224 15.505 114.406 15.124H117.558C117.344 15.84 116.987 16.4875 116.484 17.0664C115.982 17.6455 115.365 18.1032 114.634 18.4385C113.903 18.7736 113.089 18.9414 112.19 18.9414C111.033 18.9414 110.006 18.6975 109.107 18.21C108.224 17.7072 107.532 17.0135 107.029 16.1299C106.542 15.2308 106.298 14.1938 106.298 13.0205C106.298 11.8169 106.542 10.7579 107.029 9.84375C107.532 8.91435 108.224 8.19091 109.107 7.67285C109.99 7.13953 111.018 6.87208 112.19 6.87207ZM29.0771 18.667H25.9941V2.66699H29.0771V18.667ZM38.9082 6.87207C39.8674 6.87209 40.6744 7.07062 41.3291 7.4668C41.9837 7.86298 42.4785 8.44226 42.8135 9.2041C43.1636 9.96596 43.3389 10.9034 43.3389 12.0156V18.667H40.2783V12.3125C40.2783 11.3984 40.0803 10.6976 39.6846 10.21C39.3039 9.72237 38.7102 9.47855 37.9033 9.47852C37.3856 9.47852 36.9209 9.59994 36.5098 9.84375C36.114 10.0876 35.8016 10.4384 35.5732 10.8955C35.345 11.3373 35.2314 11.8787 35.2314 12.5186V18.667H32.1475V7.14648H34.8652L35.0938 9.02051C35.4439 8.38073 35.9389 7.86291 36.5781 7.4668C37.2328 7.07061 38.0099 6.87207 38.9082 6.87207ZM68.8818 5.1582H61.5508V9.43262H67.4199V11.8555H61.5508V18.667H58.4678V2.66699H68.8818V5.1582ZM91.7354 10.1406H90.6846C90.2281 10.1406 89.8019 10.1942 89.4062 10.3008C89.0256 10.4074 88.6907 10.5833 88.4014 10.8271C88.1121 11.0557 87.8905 11.3757 87.7383 11.7871C87.5862 12.1984 87.5108 12.7164 87.5107 13.3408V18.667H84.4268V7.14648H87.168L87.4648 9.27246C87.7389 8.76962 88.0811 8.34265 88.4922 7.99219C88.9185 7.64172 89.3987 7.36802 89.9316 7.16992C90.4797 6.9719 91.0808 6.87208 91.7354 6.87207V10.1406ZM75.9463 9.54688C75.4591 9.54688 75.0097 9.67652 74.5986 9.93555C74.1875 10.1794 73.8598 10.5528 73.6162 11.0557C73.388 11.5431 73.2735 12.16 73.2734 12.9062C73.2734 13.6529 73.3878 14.2784 73.6162 14.7812C73.8598 15.284 74.1794 15.6576 74.5752 15.9014C74.9862 16.1451 75.4357 16.2666 75.9229 16.2666C76.4403 16.2666 76.8972 16.145 77.293 15.9014C77.704 15.6576 78.0245 15.2841 78.2529 14.7812C78.4965 14.2784 78.6182 13.6529 78.6182 12.9062C78.6181 12.16 78.4963 11.5431 78.2529 11.0557C78.0245 10.5528 77.7041 10.1794 77.293 9.93555C76.8972 9.67662 76.4485 9.54695 75.9463 9.54688ZM98.4609 9.27246C97.8824 9.27246 97.4021 9.432 97.0215 9.75195C96.6561 10.0567 96.4737 10.5065 96.4736 11.1006C96.4736 11.6947 96.6562 12.1445 97.0215 12.4492C97.4021 12.754 97.8824 12.9062 98.4609 12.9062C99.0546 12.9062 99.5341 12.7539 99.8994 12.4492C100.265 12.1445 100.447 11.6948 100.447 11.1006C100.447 10.5065 100.265 10.0567 99.8994 9.75195C99.5341 9.43214 99.0545 9.27253 98.4609 9.27246ZM112.19 9.38672C111.673 9.38673 111.193 9.5083 110.752 9.75195C110.31 9.98052 109.96 10.3395 109.701 10.8271C109.562 11.1051 109.464 11.4251 109.404 11.7871H114.771C114.726 11.0404 114.459 10.453 113.972 10.0264C113.5 9.59988 112.906 9.38672 112.19 9.38672Z" fill="black"/>
</g>
<defs>
<linearGradient id="paint0_linear_705_5572" x1="-0.168894" y1="0.324875" x2="28.2972" y2="10.1134" gradientUnits="userSpaceOnUse">
<stop stop-color="#16C9FF"/>
<stop offset="1" stop-color="#0862FF"/>
</linearGradient>
<linearGradient id="paint1_linear_705_5572" x1="29.9996" y1="8.85666" x2="11.1576" y2="8.85666" gradientUnits="userSpaceOnUse">
<stop stop-color="#16C9FF"/>
<stop offset="1" stop-color="#0862FF"/>
</linearGradient>
<clipPath id="clip0_705_5572">
<rect width="118" height="24" fill="white"/>
</clipPath>
</defs>
</svg>
