<svg width="24" height="24" viewBox="0 0 24 24" fill="none" xmlns="http://www.w3.org/2000/svg">
<path d="M21 11.0001C21.5523 11.0001 22 11.4488 22 12.001C21.9998 14.1126 21.331 16.1697 20.0898 17.878C18.8485 19.5864 17.0983 20.8583 15.0898 21.5108C13.0814 22.1633 10.9176 22.1634 8.90918 21.5108C6.90105 20.8582 5.15132 19.5862 3.91016 17.878C2.66893 16.1695 2 14.1118 2 12.0001C2.00002 9.8883 2.66889 7.83059 3.91016 6.12213C5.15141 4.41379 6.90184 3.14188 8.91016 2.48932C10.9184 1.83689 13.0816 1.83689 15.0898 2.48932C15.6149 2.65993 15.9027 3.22397 15.7324 3.74909C15.5618 4.27434 14.9969 4.56232 14.4717 4.39167C12.865 3.86972 11.134 3.86962 9.52734 4.39167C7.92085 4.91376 6.52124 5.93134 5.52832 7.29792C4.53531 8.66468 4.00001 10.3107 4 12.0001C4 13.6894 4.53447 15.3355 5.52734 16.7022C6.52027 18.0689 7.92076 19.0863 9.52734 19.6085C11.134 20.1305 12.865 20.1304 14.4717 19.6085C16.0784 19.0865 17.4786 18.0689 18.4717 16.7022C19.4647 15.3355 19.9999 13.6894 20 12.0001C20.0002 11.448 20.4479 11.0001 21 11.0001Z" fill="url(#paint0_linear_2076_6939)"/>
<defs>
<linearGradient id="paint0_linear_2076_6939" x1="9" y1="1" x2="22" y2="12" gradientUnits="userSpaceOnUse">
<stop stop-color="currentColor"/>
<stop offset="1" stop-color="currentColor" stop-opacity="0.39"/>
</linearGradient>
</defs>
</svg>
