<svg width="20" height="20" viewBox="0 0 20 20" fill="none" xmlns="http://www.w3.org/2000/svg">
<g clip-path="url(#clip0_1767_22960)">
<path fill-rule="evenodd" clip-rule="evenodd" d="M17.9583 8.33745C18.1664 7.72052 18.2385 7.06587 18.1698 6.41843C18.101 5.77099 17.893 5.14609 17.56 4.58662C16.5458 2.84495 14.5083 1.94829 12.5183 2.36995C12.0776 1.88195 11.5385 1.4928 10.9365 1.22809C10.3346 0.963375 9.68341 0.829109 9.02584 0.83412C6.99167 0.829953 5.18667 2.12245 4.56084 4.03245C3.91755 4.16123 3.309 4.42531 2.77554 4.80719C2.24209 5.18907 1.79594 5.68001 1.46667 6.24745C0.968989 7.09267 0.756288 8.07553 0.859976 9.05089C0.963665 10.0263 1.37825 10.9424 2.04251 11.6641C1.83418 12.2811 1.76184 12.9359 1.83046 13.5835C1.89907 14.2311 2.10701 14.8561 2.44001 15.4158C3.45417 17.1575 5.49167 18.0533 7.48167 17.6325C7.92228 18.1204 8.46125 18.5094 9.06307 18.774C9.6649 19.0386 10.3159 19.1727 10.9733 19.1675C13.0092 19.1725 14.815 17.8791 15.4408 15.9675C16.0846 15.8387 16.6935 15.5745 17.2273 15.1923C17.7611 14.8101 18.2074 14.3187 18.5367 13.7508C19.0334 12.9056 19.2454 11.9232 19.1414 10.9484C19.0375 9.97359 18.623 9.05799 17.9592 8.33662L17.9583 8.33745ZM10.9742 17.9691C10.1613 17.9711 9.37317 17.69 8.74501 17.1741C8.77334 17.1591 8.82251 17.1325 8.85501 17.1125L12.555 15.0041C12.6473 14.9526 12.7242 14.8772 12.7775 14.7859C12.8309 14.6946 12.8588 14.5907 12.8583 14.485V9.33829L14.4225 10.2291C14.4392 10.2375 14.45 10.2533 14.4525 10.2708V14.5333C14.45 16.4283 12.8942 17.965 10.9742 17.9691ZM3.49334 14.8175C3.08553 14.1238 2.93839 13.3074 3.07834 12.515C3.10501 12.5316 3.15334 12.5608 3.18751 12.58L6.88751 14.6883C7.07501 14.7966 7.30751 14.7966 7.49584 14.6883L12.0125 12.115V13.8966C12.0129 13.9058 12.011 13.9149 12.0071 13.9231C12.0032 13.9314 11.9973 13.9386 11.99 13.9441L8.25001 16.0741C6.58417 17.0208 4.45667 16.4575 3.49417 14.8158L3.49334 14.8175ZM2.51917 6.84745C2.92858 6.14912 3.56999 5.61653 4.33167 5.34245L4.33001 5.46829V9.68495C4.3295 9.79082 4.35737 9.8949 4.41071 9.98635C4.46406 10.0778 4.54093 10.1533 4.63334 10.205L9.15001 12.7775L7.58667 13.6691C7.57894 13.6741 7.5701 13.6771 7.56095 13.6778C7.55179 13.6785 7.54259 13.677 7.53417 13.6733L3.79334 11.5408C2.13084 10.5908 1.56084 8.49245 2.51834 6.84912L2.51917 6.84745ZM15.3667 9.79745L10.85 7.22412L12.4133 6.33412C12.421 6.32902 12.4298 6.3259 12.439 6.32503C12.4481 6.32416 12.4574 6.32556 12.4658 6.32912L16.2067 8.45995C17.8717 9.40995 18.4425 11.5116 17.4808 13.1541C17.0711 13.852 16.4302 14.3847 15.6692 14.66V10.3175C15.6697 10.2118 15.6419 10.1079 15.5887 10.0166C15.5355 9.92531 15.4589 9.84993 15.3667 9.79829V9.79745ZM16.9225 7.48662C16.8861 7.46449 16.8494 7.44282 16.8125 7.42162L13.1125 5.31329C13.0201 5.26013 12.9154 5.23215 12.8088 5.23215C12.7022 5.23215 12.5974 5.26013 12.505 5.31329L7.98834 7.88662V6.10495C7.98798 6.09581 7.98983 6.08671 7.99375 6.07844C7.99767 6.07016 8.00353 6.06296 8.01084 6.05745L11.75 3.92829C13.4167 2.98079 15.5458 3.54495 16.5058 5.18912C16.9117 5.88329 17.06 6.69662 16.9225 7.48662ZM7.13834 10.6616L5.57417 9.77162C5.56601 9.76762 5.55898 9.76163 5.55374 9.75421C5.54849 9.74678 5.54521 9.73815 5.54417 9.72912V5.46662C5.54501 3.56912 7.10501 2.03162 9.02834 2.03329C9.84167 2.03329 10.6283 2.31495 11.2542 2.82829C11.2258 2.84329 11.1775 2.86995 11.145 2.88912L7.44501 4.99745C7.35251 5.04888 7.2755 5.12417 7.222 5.21548C7.1685 5.3068 7.14047 5.41079 7.14084 5.51662L7.13834 10.6608V10.6616ZM7.98834 8.85495L10 7.70912L12.0117 8.85495V11.1466L10 12.2925L7.98751 11.1466V8.85495H7.98834Z" fill="currentColor"/>
</g>
<defs>
<clipPath id="clip0_1767_22960">
<rect width="20" height="20" fill="currentColor"/>
</clipPath>
</defs>
</svg>
