<svg width="20" height="20" viewBox="0 0 20 20" fill="none" xmlns="http://www.w3.org/2000/svg">
<path d="M3.3335 16.6663H6.66683L15.4168 7.91627C15.6357 7.6974 15.8093 7.43756 15.9278 7.15159C16.0462 6.86563 16.1072 6.55913 16.1072 6.2496C16.1072 5.94007 16.0462 5.63357 15.9278 5.34761C15.8093 5.06164 15.6357 4.8018 15.4168 4.58293C15.198 4.36406 14.9381 4.19045 14.6522 4.072C14.3662 3.95354 14.0597 3.89258 13.7502 3.89258C13.4406 3.89258 13.1341 3.95354 12.8482 4.072C12.5622 4.19045 12.3024 4.36406 12.0835 4.58293L3.3335 13.3329V16.6663Z" stroke="#717A7A" stroke-width="2" stroke-linecap="round" stroke-linejoin="round"/>
<path d="M11.25 5.41699L14.5833 8.75033" stroke="#717A7A" stroke-width="2" stroke-linecap="round" stroke-linejoin="round"/>
</svg>
