<svg width="20" height="20" viewBox="0 0 20 20" fill="none" xmlns="http://www.w3.org/2000/svg">
<path d="M14.1667 2.78332C15.4236 3.50904 16.4691 4.55043 17.1999 5.80441C17.9306 7.05839 18.3212 8.48147 18.3329 9.93277C18.3446 11.3841 17.9771 12.8133 17.2667 14.0789C16.5563 15.3445 15.5277 16.4027 14.2827 17.1486C13.0377 17.8945 11.6195 18.3023 10.1684 18.3317C8.71738 18.3611 7.28381 18.011 6.00965 17.316C4.73549 16.6211 3.66491 15.6054 2.90391 14.3696C2.14291 13.1337 1.71786 11.7206 1.67085 10.27L1.66669 9.99999L1.67085 9.72999C1.71752 8.29082 2.13631 6.88829 2.88639 5.65915C3.63646 4.43001 4.69223 3.4162 5.95076 2.71656C7.2093 2.01692 8.62764 1.65532 10.0675 1.66702C11.5074 1.67872 12.9197 2.06332 14.1667 2.78332ZM10 8.33333C9.60174 8.33331 9.21662 8.47592 8.9144 8.73533C8.61219 8.99474 8.41286 9.35381 8.35252 9.74749L8.33752 9.87582L8.33335 9.99999L8.33752 10.125C8.36184 10.4484 8.47997 10.7576 8.67744 11.0149C8.8749 11.2721 9.14312 11.4661 9.44922 11.5732C9.75533 11.6803 10.086 11.6957 10.4008 11.6176C10.7155 11.5396 11.0006 11.3714 11.2212 11.1336C11.4418 10.8959 11.5882 10.599 11.6426 10.2793C11.6969 9.95963 11.6568 9.63102 11.5272 9.33376C11.3976 9.03651 11.184 8.78354 10.9128 8.60583C10.6415 8.42813 10.3243 8.33343 10 8.33333Z" fill="black"/>
</svg>
