<svg width="24" height="24" viewBox="0 0 24 24" fill="none" xmlns="http://www.w3.org/2000/svg">
<path d="M12.0002 1.66992C12.9552 1.66992 13.8452 2.13692 14.3902 2.91692L14.4952 3.07692L22.6092 16.6249C22.8558 17.052 22.9899 17.5347 22.9991 18.0277C23.0083 18.5208 22.8922 19.0081 22.6617 19.4441C22.4311 19.8801 22.0938 20.2504 21.6811 20.5204C21.2684 20.7904 20.794 20.9513 20.3022 20.9879L20.1072 20.9959H3.88219C3.38989 20.9904 2.90702 20.8602 2.47866 20.6175C2.05029 20.3749 1.69039 20.0276 1.43255 19.6082C1.17472 19.1888 1.02735 18.7109 1.0042 18.2191C0.981052 17.7273 1.08288 17.2377 1.30019 16.7959L1.39919 16.6109L9.50919 3.07292C9.76885 2.64473 10.1345 2.29069 10.5708 2.04494C11.0071 1.79919 11.4994 1.67003 12.0002 1.66992ZM12.0102 14.9999L11.8832 15.0069C11.6401 15.0358 11.4161 15.1529 11.2536 15.3359C11.0911 15.5189 11.0013 15.7552 11.0013 15.9999C11.0013 16.2447 11.0911 16.4809 11.2536 16.664C11.4161 16.847 11.6401 16.964 11.8832 16.9929L12.0002 16.9999L12.1272 16.9929C12.3702 16.964 12.5942 16.847 12.7568 16.664C12.9193 16.4809 13.0091 16.2447 13.0091 15.9999C13.0091 15.7552 12.9193 15.5189 12.7568 15.3359C12.5942 15.1529 12.3702 15.0358 12.1272 15.0069L12.0102 14.9999ZM12.0002 7.99992C11.7553 7.99995 11.5188 8.08988 11.3358 8.25264C11.1528 8.4154 11.0358 8.63967 11.0072 8.88292L11.0002 8.99992V12.9999L11.0072 13.1169C11.0361 13.36 11.1531 13.584 11.3362 13.7465C11.5192 13.909 11.7554 13.9988 12.0002 13.9988C12.2449 13.9988 12.4812 13.909 12.6642 13.7465C12.8472 13.584 12.9643 13.36 12.9932 13.1169L13.0002 12.9999V8.99992L12.9932 8.88292C12.9645 8.63967 12.8476 8.4154 12.6646 8.25264C12.4815 8.08988 12.2451 7.99995 12.0002 7.99992Z" fill="#F59E0B"/>
</svg>
