<svg width="1080" height="400" viewBox="0 0 1080 400" fill="none" xmlns="http://www.w3.org/2000/svg">
<rect width="1080" height="400" fill="black"/>
<path d="M253 281C253 284 251.664 286.164 249 287.5C247.739 288.132 247 288.5 245.8 288.5C245 288.5 243.54 288.193 242.5 287.5C239.5 285.5 164 209 164 209L192 181L248.607 237.607C251.42 240.42 253 244.222 253 248.201V281Z" fill="url(#paint0_linear_101_25)"/>
<path d="M136.244 230.934L107.134 201.96C104.302 199.142 104.302 194.559 107.134 191.741L170.07 129.1C171.421 127.755 173.25 127 175.156 127H199.878C201.784 127 203.612 127.755 204.963 129.1L221.694 145.751C225.657 149.697 225.657 156.113 221.694 160.058L150.484 230.934C146.546 234.853 140.182 234.853 136.244 230.934Z" fill="url(#paint1_linear_101_25)"/>
<path d="M949.564 209.58C949.328 203.246 947.74 198.204 944.797 194.456C941.972 190.578 937.912 188.639 932.616 188.639C927.319 188.639 922.788 190.707 919.022 194.843C915.373 198.851 913.019 204.732 911.96 212.488H949.564V209.58ZM937.029 270.659C922.788 270.659 911.548 266.005 903.309 256.698C895.07 247.391 890.951 235.175 890.951 220.051C890.951 204.797 894.835 192.711 902.603 183.791C910.371 174.872 920.081 170.412 931.733 170.412C943.385 170.412 952.624 174.29 959.45 182.046C966.277 189.802 969.69 201.113 969.69 215.979C969.69 219.598 969.278 224.252 968.454 229.94H912.313C913.843 237.049 917.021 242.479 921.846 246.227C926.79 249.976 933.439 251.85 941.796 251.85C950.152 251.85 957.567 249.265 964.041 244.094V264.26C957.803 268.526 948.799 270.659 937.029 270.659Z" fill="white"/>
<path d="M832.287 190.19C826.402 190.19 821.694 192.84 818.163 198.14C814.632 203.31 812.867 210.42 812.867 219.469C812.867 228.518 814.691 235.498 818.34 240.41C821.988 245.193 826.637 247.585 832.287 247.585C838.054 247.585 842.88 245.128 846.764 240.216C850.648 235.175 852.59 228.065 852.59 218.887C852.59 209.58 850.706 202.47 846.94 197.558C843.174 192.646 838.289 190.19 832.287 190.19ZM873.775 260.77C873.775 276.282 869.656 287.916 861.417 295.672C853.296 303.557 843.115 307.5 830.875 307.5C818.752 307.5 808.277 305.173 799.45 300.52V276.864C807.453 283.068 817.045 286.171 828.226 286.171C844.468 286.171 852.59 277.639 852.59 260.576V252.044C847.176 261.739 839.054 266.587 828.226 266.587C817.516 266.587 808.571 262.58 801.392 254.565C794.33 246.421 790.799 234.981 790.799 220.244C790.799 205.379 794.153 193.357 800.862 184.179C807.688 174.872 816.633 170.218 827.697 170.218C838.878 170.218 847.176 175.324 852.59 185.536V171.381H873.775V260.77Z" fill="white"/>
<path d="M753.806 269.689H732.444L732.62 171.381H753.806V188.833C757.925 176.681 765.458 170.606 776.404 170.606C778.875 170.606 780.876 170.8 782.406 171.188V193.68C779.699 192.387 776.698 191.741 773.402 191.741C767.635 191.741 762.927 194.326 759.279 199.497C755.63 204.668 753.806 211.131 753.806 218.887V269.689Z" fill="white"/>
<path d="M671.46 188.832C664.516 188.832 659.219 191.87 655.571 197.946C652.04 204.021 650.275 211.648 650.275 220.826C650.275 229.875 652.099 237.437 655.747 243.513C659.396 249.588 664.634 252.626 671.46 252.626C678.286 252.626 683.465 249.653 686.996 243.706C690.527 237.76 692.292 230.133 692.292 220.826C692.292 211.519 690.586 203.892 687.172 197.946C683.759 191.87 678.522 188.832 671.46 188.832ZM671.637 169.83C685.054 169.83 695.529 174.613 703.062 184.179C710.594 193.615 714.36 205.702 714.36 220.438C714.36 235.175 710.535 247.326 702.885 256.892C695.352 266.458 684.76 271.24 671.107 271.24C657.572 271.24 646.979 266.587 639.329 257.28C631.796 247.972 628.03 235.95 628.03 221.214C628.03 206.477 631.973 194.262 639.858 184.567C647.744 174.742 658.337 169.83 671.637 169.83Z" fill="white"/>
<path d="M609.312 217.53H568V269.689H545.579V139H615.314V158.972H568V197.558H609.312V217.53Z" fill="white"/>
<path d="M527.791 241.38C527.791 250.558 524.79 257.732 518.787 262.903C512.784 268.073 504.487 270.659 493.894 270.659C483.419 270.659 474.768 268.655 467.942 264.648V243.319C475.828 249.136 484.361 252.044 493.541 252.044C497.425 252.044 500.426 251.269 502.545 249.717C504.781 248.037 505.899 246.098 505.899 243.9C505.899 241.574 505.546 239.764 504.84 238.471C504.134 237.049 502.78 235.692 500.779 234.399C498.19 232.719 495.542 231.297 492.835 230.133C490.246 228.841 488.833 228.13 488.598 228C488.48 227.871 488.245 227.742 487.892 227.613C487.539 227.483 487.244 227.354 487.009 227.225C473.945 220.762 467.412 211.454 467.412 199.303C467.412 190.254 470.531 183.145 476.769 177.974C483.007 172.803 490.716 170.218 499.897 170.218C509.195 170.218 516.845 171.64 522.848 174.484V195.037C516.963 191.159 509.607 189.22 500.779 189.22C497.131 189.22 494.247 190.125 492.129 191.935C490.128 193.615 489.127 195.813 489.127 198.528C489.127 200.725 489.657 202.406 490.716 203.569C491.776 204.732 492.658 205.637 493.365 206.284C494.071 206.93 495.071 207.641 496.366 208.416C499.544 210.097 501.956 211.325 503.604 212.101C511.725 215.849 517.787 220.051 521.788 224.704C525.79 229.229 527.791 234.787 527.791 241.38Z" fill="white"/>
<path d="M447.21 269.689H426.025V209.192C426.025 202.729 424.613 197.881 421.788 194.649C418.963 191.289 414.962 189.608 409.783 189.608C404.604 189.608 400.132 191.999 396.365 196.782C392.599 201.436 390.716 208.158 390.716 216.948V269.689H369.531V171.381H390.716V188.251C395.777 176.229 404.957 170.218 418.257 170.218C427.202 170.218 434.264 173.191 439.442 179.137C444.621 185.084 447.21 193.486 447.21 204.345V269.689Z" fill="white"/>
<path d="M344.245 269.689H322V139H344.245V269.689Z" fill="white"/>
<defs>
<linearGradient id="paint0_linear_101_25" x1="264.639" y1="302.534" x2="192.289" y2="165.357" gradientUnits="userSpaceOnUse">
<stop stop-color="#009DFF"/>
<stop offset="1" stop-color="#004E75"/>
</linearGradient>
<linearGradient id="paint1_linear_101_25" x1="210.858" y1="136.372" x2="87.5817" y2="259.648" gradientUnits="userSpaceOnUse">
<stop stop-color="#009DFF"/>
<stop offset="1" stop-color="#004E75"/>
</linearGradient>
</defs>
</svg>
