<svg width="19" height="18" viewBox="0 0 19 18" fill="none" xmlns="http://www.w3.org/2000/svg">
<g clip-path="url(#clip0_248_31178)">
<path fill-rule="evenodd" clip-rule="evenodd" d="M13.1095 2.99316C15.172 2.99316 16.8445 4.67316 16.8445 6.74541V7.99566L17.932 10.1677C17.9851 10.2735 18.0126 10.3903 18.0123 10.5087C18.0121 10.6271 17.9841 10.7438 17.9305 10.8494L16.8445 12.9974V14.2484C16.8445 16.3199 15.172 17.9999 13.1095 17.9999H5.63879C3.57554 17.9999 1.9038 16.3199 1.9038 14.2484V12.9974L0.793795 10.8562C0.737938 10.7489 0.708586 10.6298 0.708195 10.5088C0.707803 10.3879 0.736384 10.2686 0.791545 10.1609L1.90305 7.99566V6.74541C1.90305 4.67316 3.57554 2.99316 5.63804 2.99316H13.1095ZM6.53205 7.19991C6.07972 7.19991 5.64592 7.3796 5.32607 7.69944C5.00623 8.01929 4.82655 8.45309 4.82655 8.90541V11.9369C4.8359 12.3829 5.01966 12.8076 5.33841 13.1197C5.65716 13.4318 6.08554 13.6067 6.53167 13.6067C6.9778 13.6067 7.40618 13.4318 7.72493 13.1197C8.04368 12.8076 8.22744 12.3829 8.2368 11.9369V8.90541C8.2368 8.45322 8.05721 8.01953 7.73753 7.69971C7.41785 7.37989 6.98424 7.20011 6.53205 7.19991ZM12.0265 7.19991C11.5742 7.19991 11.1404 7.3796 10.8206 7.69944C10.5007 8.01929 10.321 8.45309 10.321 8.90541V11.9369C10.321 12.3892 10.5007 12.823 10.8206 13.1429C11.1404 13.4627 11.5742 13.6424 12.0265 13.6424C12.4789 13.6424 12.9127 13.4627 13.2325 13.1429C13.5524 12.823 13.732 12.3892 13.732 11.9369V8.90541C13.732 8.68138 13.6879 8.45954 13.6021 8.25257C13.5164 8.0456 13.3907 7.85756 13.2323 7.69918C13.0738 7.5408 12.8857 7.41519 12.6787 7.32952C12.4717 7.24386 12.2506 7.19982 12.0265 7.19991Z" fill="#D4D4D4"/>
<path fill-rule="evenodd" clip-rule="evenodd" d="M9.3738 4.1685C9.92658 4.1685 10.4567 3.94891 10.8476 3.55804C11.2385 3.16716 11.4581 2.63703 11.4581 2.08425C11.4581 1.53147 11.2385 1.00134 10.8476 0.610463C10.4567 0.21959 9.92658 0 9.3738 0C8.82102 0 8.29089 0.21959 7.90001 0.610463C7.50914 1.00134 7.28955 1.53147 7.28955 2.08425C7.28955 2.63703 7.50914 3.16716 7.90001 3.55804C8.29089 3.94891 8.82102 4.1685 9.3738 4.1685Z" fill="#D4D4D4"/>
</g>
<defs>
<clipPath id="clip0_248_31178">
<rect width="18" height="18" fill="white" transform="translate(0.333313)"/>
</clipPath>
</defs>
</svg>
