<svg width="18" height="18" viewBox="0 0 18 18" fill="none" xmlns="http://www.w3.org/2000/svg">
<g clip-path="url(#clip0_248_31184)">
<path fill-rule="evenodd" clip-rule="evenodd" d="M17.835 3.753H17.664C17.4485 3.75369 17.2352 3.79685 17.0364 3.88001C16.8375 3.96317 16.657 4.0847 16.5052 4.23766C16.3533 4.39062 16.2331 4.572 16.1514 4.77144C16.0697 4.97088 16.0281 5.18447 16.029 5.4V9.084C16.029 9.819 15.426 10.4152 14.709 10.4152C14.4921 10.4134 14.2788 10.3598 14.0868 10.259C13.8948 10.1581 13.7297 10.013 13.605 9.8355L9.876 4.4625C9.72441 4.24261 9.52164 4.06287 9.28516 3.93875C9.04868 3.81463 8.78557 3.74986 8.5185 3.75C7.668 3.75 6.903 4.479 6.903 5.37975V9.08475C6.903 9.81975 6.30525 10.416 5.583 10.416C5.1555 10.416 4.731 10.1992 4.479 9.83625L0.306 3.8235C0.2115 3.6885 0 3.75525 0 3.921V7.134C0 7.296 0.0495 7.4535 0.141 7.587L4.24725 13.5037C4.49025 13.8532 4.84725 14.1128 5.2605 14.2073C6.29325 14.4443 7.24425 13.6418 7.24425 12.6195V8.9175C7.24425 8.1825 7.8345 7.58625 8.56425 7.58625H8.56575C9.00525 7.58625 9.417 7.80225 9.66975 8.166L13.3988 13.5382C13.5481 13.7603 13.7504 13.9418 13.9874 14.0662C14.2244 14.1905 14.4886 14.254 14.7562 14.2507C15.6247 14.2507 16.3695 13.521 16.3695 12.621V8.91675C16.3695 8.18175 16.9598 7.5855 17.6895 7.5855H17.835C17.9265 7.5855 18 7.5105 18 7.419V3.91875C18.0001 3.89698 17.9959 3.87541 17.9877 3.85526C17.9794 3.83512 17.9673 3.81679 17.952 3.80133C17.9367 3.78587 17.9184 3.77357 17.8984 3.76515C17.8783 3.75673 17.8568 3.75235 17.835 3.75225V3.753Z" fill="#D4D4D4"/>
</g>
<defs>
<clipPath id="clip0_248_31184">
<rect width="18" height="18" fill="white"/>
</clipPath>
</defs>
</svg>
